# xmcd
#
# Track frame offsets:
#	150
#	9871
#	19011
#	33943
#	35800
#	49131
#	56752
#	58213
#	69286
#	78034
#	90801
#	92598
#	107683
#	108896
#
# Disc length: 1506 seconds
#
# Revision: 2
# Processed by: cddbd v1.4PL0 Copyright (c) Steve Scherf et al.
# Submitted via: EasyCDDAExtractor 5.1.0
#
DISCID=9d05e00e
DTITLE=Doug Moreland - 10 Beers From Now
DYEAR=2002
DGENRE=Country
TTITLE0=Heart as Big as Texas
TTITLE1=#2
TTITLE2=The But Song
TTITLE3=The Lancelot Toast
TTITLE4=10 Beers From Now
TTITLE5=Lion
TTITLE6=The Red Shoes Toast
TTITLE7=Never Talk Bad About Her
TTITLE8=Palm
TTITLE9=Jalapenos Song
TTITLE10=The Space Toast
TTITLE11=The Chitty Song
TTITLE12=The Kiss Toast
TTITLE13=I Ain't Got the Gas
EXTD=Artist: Doug Moreland
EXTT0=
EXTT1=
EXTT2=
EXTT3=
EXTT4=
EXTT5=
EXTT6=
EXTT7=
EXTT8=
EXTT9=
EXTT10=
EXTT11=
EXTT12=
EXTT13=
PLAYORDER=
